# xmcd
#
# Track frame offsets:
#	150
#	16469
#	33244
#	51339
#	72465
#	88081
#	99246
#	115914
#	131514
#	147182
#
# Disc length: 2202 seconds
#
# Revision: 1
# Processed by: cddbd v1.5.2PL0 Copyright (c) Steve Scherf et al.
# Submitted via: audiograbber 1.83.01
#
DISCID=8708980a
DTITLE=Daniel Martin Moore  - Golden Age
DYEAR=2015
DGENRE=
TTITLE0=Golden Age
TTITLE1=Aur Heart Will Hover
TTITLE2=Proud As We Are
TTITLE3=Anyway
TTITLE4=Sign Of Life
TTITLE5=Lily Mozelle
TTITLE6=To Make It Trus
TTITLE7=On Our Way Home
TTITLE8=In Common Time
TTITLE9=How It Fades
EXTD=
EXTT0=
EXTT1=
EXTT2=
EXTT3=
EXTT4=
EXTT5=
EXTT6=
EXTT7=
EXTT8=
EXTT9=
PLAYORDER=
